<?xml version="1.0" encoding="UTF-8" standalone="no"?>
<!DOCTYPE svg PUBLIC "-//W3C//DTD SVG 1.1//EN"
 "http://www.w3.org/Graphics/SVG/1.1/DTD/svg11.dtd">
<!-- Generated by graphviz version 2.43.0 (0)
 -->
<!-- Title: G Pages: 1 -->
<svg width="857pt" height="314pt"
 viewBox="0.00 0.00 857.00 314.00" xmlns="http://www.w3.org/2000/svg" xmlns:xlink="http://www.w3.org/1999/xlink">
<g id="graph0" class="graph" transform="scale(1 1) rotate(0) translate(4 310)">
<title>G</title>
<polygon fill="white" stroke="transparent" points="-4,4 -4,-310 853,-310 853,4 -4,4"/>
<!-- data.vsphere_datacenter.datacenter -->
<g id="node1" class="node">
<title>data.vsphere_datacenter.datacenter</title>
<polygon fill="none" stroke="black" points="253,-171 0,-171 0,-135 253,-135 253,-171"/>
<text text-anchor="middle" x="126.5" y="-149.3" font-family="sans-serif" font-size="14.00">data.vsphere_datacenter.datacenter</text>
</g>
<!-- data.vsphere_datastore.datastore -->
<g id="node2" class="node">
<title>data.vsphere_datastore.datastore</title>
<polygon fill="none" stroke="black" points="544.5,-306 308.5,-306 308.5,-270 544.5,-270 544.5,-306"/>
<text text-anchor="middle" x="426.5" y="-284.3" font-family="sans-serif" font-size="14.00">data.vsphere_datastore.datastore</text>
</g>
<!-- data.vsphere_datastore.datastore&#45;&gt;data.vsphere_datacenter.datacenter -->
<g id="edge1" class="edge">
<title>data.vsphere_datastore.datastore&#45;&gt;data.vsphere_datacenter.datacenter</title>
<path fill="none" stroke="black" d="M314.5,-269.93C305.75,-267.33 297.15,-264.37 289,-261 238.65,-240.16 187.53,-202.61 156.66,-177.74"/>
<polygon fill="black" stroke="black" points="158.85,-175.01 148.89,-171.4 154.42,-180.43 158.85,-175.01"/>
</g>
<!-- data.vsphere_folder.folder -->
<g id="node3" class="node">
<title>data.vsphere_folder.folder</title>
<polygon fill="none" stroke="black" points="520,-36 333,-36 333,0 520,0 520,-36"/>
<text text-anchor="middle" x="426.5" y="-14.3" font-family="sans-serif" font-size="14.00">data.vsphere_folder.folder</text>
</g>
<!-- data.vsphere_folder.folder&#45;&gt;data.vsphere_datacenter.datacenter -->
<g id="edge2" class="edge">
<title>data.vsphere_folder.folder&#45;&gt;data.vsphere_datacenter.datacenter</title>
<path fill="none" stroke="black" d="M332.98,-31.15C317.98,-34.74 302.84,-39.27 289,-45 238.65,-65.84 187.53,-103.39 156.66,-128.26"/>
<polygon fill="black" stroke="black" points="154.42,-125.57 148.89,-134.6 158.85,-130.99 154.42,-125.57"/>
</g>
<!-- data.vsphere_network.network_0 -->
<g id="node4" class="node">
<title>data.vsphere_network.network_0</title>
<polygon fill="none" stroke="black" points="544.5,-252 308.5,-252 308.5,-216 544.5,-216 544.5,-252"/>
<text text-anchor="middle" x="426.5" y="-230.3" font-family="sans-serif" font-size="14.00">data.vsphere_network.network_0</text>
</g>
<!-- data.vsphere_network.network_0&#45;&gt;data.vsphere_datacenter.datacenter -->
<g id="edge3" class="edge">
<title>data.vsphere_network.network_0&#45;&gt;data.vsphere_datacenter.datacenter</title>
<path fill="none" stroke="black" d="M326.37,-215.94C313.74,-213.18 301.03,-210.19 289,-207 254.32,-197.81 216.22,-185.2 185.74,-174.47"/>
<polygon fill="black" stroke="black" points="186.72,-171.11 176.13,-171.06 184.38,-177.7 186.72,-171.11"/>
</g>
<!-- data.vsphere_network.network_1 -->
<g id="node5" class="node">
<title>data.vsphere_network.network_1</title>
<polygon fill="none" stroke="black" points="544.5,-198 308.5,-198 308.5,-162 544.5,-162 544.5,-198"/>
<text text-anchor="middle" x="426.5" y="-176.3" font-family="sans-serif" font-size="14.00">data.vsphere_network.network_1</text>
</g>
<!-- data.vsphere_network.network_1&#45;&gt;data.vsphere_datacenter.datacenter -->
<g id="edge4" class="edge">
<title>data.vsphere_network.network_1&#45;&gt;data.vsphere_datacenter.datacenter</title>
<path fill="none" stroke="black" d="M308.15,-169.37C293.46,-168.04 278.34,-166.67 263.4,-165.31"/>
<polygon fill="black" stroke="black" points="263.37,-161.8 253.09,-164.38 262.73,-168.77 263.37,-161.8"/>
</g>
<!-- data.vsphere_resource_pool.pool -->
<g id="node6" class="node">
<title>data.vsphere_resource_pool.pool</title>
<polygon fill="none" stroke="black" points="542.5,-144 310.5,-144 310.5,-108 542.5,-108 542.5,-144"/>
<text text-anchor="middle" x="426.5" y="-122.3" font-family="sans-serif" font-size="14.00">data.vsphere_resource_pool.pool</text>
</g>
<!-- data.vsphere_resource_pool.pool&#45;&gt;data.vsphere_datacenter.datacenter -->
<g id="edge5" class="edge">
<title>data.vsphere_resource_pool.pool&#45;&gt;data.vsphere_datacenter.datacenter</title>
<path fill="none" stroke="black" d="M310.29,-136.44C294.97,-137.83 279.15,-139.26 263.52,-140.68"/>
<polygon fill="black" stroke="black" points="262.93,-137.21 253.29,-141.6 263.56,-144.19 262.93,-137.21"/>
</g>
<!-- data.vsphere_virtual_machine.template -->
<g id="node7" class="node">
<title>data.vsphere_virtual_machine.template</title>
<polygon fill="none" stroke="black" points="564,-90 289,-90 289,-54 564,-54 564,-90"/>
<text text-anchor="middle" x="426.5" y="-68.3" font-family="sans-serif" font-size="14.00">data.vsphere_virtual_machine.template</text>
</g>
<!-- data.vsphere_virtual_machine.template&#45;&gt;data.vsphere_datacenter.datacenter -->
<g id="edge6" class="edge">
<title>data.vsphere_virtual_machine.template&#45;&gt;data.vsphere_datacenter.datacenter</title>
<path fill="none" stroke="black" d="M326.37,-90.06C313.74,-92.82 301.03,-95.81 289,-99 254.32,-108.19 216.22,-120.8 185.74,-131.53"/>
<polygon fill="black" stroke="black" points="184.38,-128.3 176.13,-134.94 186.72,-134.89 184.38,-128.3"/>
</g>
<!-- vsphere_virtual_machine.create&#45;vm -->
<g id="node8" class="node">
<title>vsphere_virtual_machine.create&#45;vm</title>
<polygon fill="none" stroke="black" points="849,-198 600,-198 600,-162 849,-162 849,-198"/>
<text text-anchor="middle" x="724.5" y="-176.3" font-family="sans-serif" font-size="14.00">vsphere_virtual_machine.create&#45;vm</text>
</g>
<!-- vsphere_virtual_machine.create&#45;vm&#45;&gt;data.vsphere_datastore.datastore -->
<g id="edge7" class="edge">
<title>vsphere_virtual_machine.create&#45;vm&#45;&gt;data.vsphere_datastore.datastore</title>
<path fill="none" stroke="black" d="M694.01,-198.1C662.8,-216.5 611.56,-244.57 564,-261 557.48,-263.25 550.72,-265.34 543.84,-267.27"/>
<polygon fill="black" stroke="black" points="542.47,-264.01 533.71,-269.98 544.28,-270.77 542.47,-264.01"/>
</g>
<!-- vsphere_virtual_machine.create&#45;vm&#45;&gt;data.vsphere_network.network_0 -->
<g id="edge8" class="edge">
<title>vsphere_virtual_machine.create&#45;vm&#45;&gt;data.vsphere_network.network_0</title>
<path fill="none" stroke="black" d="M624.52,-198.06C596.26,-203.21 565.31,-208.86 536.48,-214.12"/>
<polygon fill="black" stroke="black" points="535.59,-210.72 526.38,-215.96 536.85,-217.61 535.59,-210.72"/>
</g>
<!-- vsphere_virtual_machine.create&#45;vm&#45;&gt;data.vsphere_network.network_1 -->
<g id="edge9" class="edge">
<title>vsphere_virtual_machine.create&#45;vm&#45;&gt;data.vsphere_network.network_1</title>
<path fill="none" stroke="black" d="M599.68,-180C584.88,-180 569.75,-180 554.9,-180"/>
<polygon fill="black" stroke="black" points="554.67,-176.5 544.67,-180 554.67,-183.5 554.67,-176.5"/>
</g>
<!-- vsphere_virtual_machine.create&#45;vm&#45;&gt;data.vsphere_resource_pool.pool -->
<g id="edge10" class="edge">
<title>vsphere_virtual_machine.create&#45;vm&#45;&gt;data.vsphere_resource_pool.pool</title>
<path fill="none" stroke="black" d="M624.52,-161.94C596.26,-156.79 565.31,-151.14 536.48,-145.88"/>
<polygon fill="black" stroke="black" points="536.85,-142.39 526.38,-144.04 535.59,-149.28 536.85,-142.39"/>
</g>
<!-- vsphere_virtual_machine.create&#45;vm&#45;&gt;data.vsphere_virtual_machine.template -->
<g id="edge11" class="edge">
<title>vsphere_virtual_machine.create&#45;vm&#45;&gt;data.vsphere_virtual_machine.template</title>
<path fill="none" stroke="black" d="M694.01,-161.9C662.8,-143.5 611.56,-115.43 564,-99 557.48,-96.75 550.72,-94.66 543.84,-92.73"/>
<polygon fill="black" stroke="black" points="544.28,-89.23 533.71,-90.02 542.47,-95.99 544.28,-89.23"/>
</g>
</g>
</svg>
